<?xml version="1.0" encoding="utf-8"?>
<svg xmlns="http://www.w3.org/2000/svg" viewBox="270 205 65 90">
  <!-- Face/skin base -->
  <path style="fill:#FFFFFF;" d="M291.715,222.254l-15.634,16.599c0,0-2.156,1.906-1.299,6.721c0.857,4.815,2.852,8.952,4.36,9.272
    c1.507,0.321,3.62,0.324,3.62,0.324s3.35,7.261,5.723,10.114c0,0,0.827,11.207,0.387,14.318c0,0,5.616,4.906,10.907,5.53
    c5.291,0.624,13.465-7.482,13.465-7.482l2.026-9.923c0,0,4.796-7.28,5.123-9.218c0.327-1.938,2.52-1.441,3.597-2.397
    c1.077-0.956,3.571-5.232,3.983-9.272c0.412-4.04,0.441-8.681-4.253-7.318c-4.066-1.093-1.521-9.69-1.521-9.69l-7.146-6.305
    L291.715,222.254z"/>
  <!-- Hair -->
  <path style="fill:#263238;" d="M281.921,250.632c1.124-0.051,2.97-1.147,3.562-2.105c0.592-0.957,0.843-2.083,1.035-3.192
    c0.368-2.124,0.557-4.279,0.564-6.434c0.003-0.842-0.02-1.702,0.226-2.507c0.256-0.839,0.788-1.565,1.357-2.232
    c1.417-1.66,3.122-3.063,4.469-4.78c1.347-1.717,2.337-3.891,1.973-6.043c0,0,9.205,8.414,22.474,5.812
    c7.143-1.401,14-7.67,13.165-15.549c-0.297-2.804-2.358-4.82-5.033-5.486c-3.531-0.878-6.704,1.004-9.903,2.211
    c-5.833,2.2-11.54-1.578-17.433-2.211c-5.04-0.542-11.225,0.083-13.85,5.094c0,0-9.052,1.064-13.018,8.498
    c-3.965,7.435,3.572,17.728,3.572,17.728s3.034-3.672,6.932,3.762L281.921,250.632z"/>
  <path style="fill:#263238;" d="M316.952,226.681c0,0-2.341,12.199,3.767,18.105c0,0,1.337-3.667,2.692-4.562
    c0,0,3.4-6.445-1.07-13.544C317.873,219.582,316.952,226.681,316.952,226.681z"/>
  <!-- Head outline -->
  <path style="fill:none;stroke:#263238;stroke-width:1.1031;stroke-linecap:round;stroke-linejoin:round;stroke-miterlimit:10;" d="
    M316.382,228.582c0,0,5.135,6.452,4.872,11.324c-0.263,4.872-0.658,10.666-0.527,16.328c0.132,5.662-9.086,17.513-13.826,18.566
    c-4.74,1.053-8.822,1.317-11.851-1.712c-3.028-3.029-6.057-7.242-10.007-12.641c-3.95-5.399-3.028-17.25-3.028-17.25"/>
  <!-- Nose -->
  <path style="fill:none;stroke:#263238;stroke-width:1.1031;stroke-linecap:round;stroke-linejoin:round;stroke-miterlimit:10;" d="
    M304.021,247.714c-0.314,1.769-0.448,3.571-0.401,5.367c0.04,1.504,0.263,3.13,1.317,4.204c0.568,0.579,1.392,1.042,1.5,1.845
    c0.096,0.713-0.449,1.36-1.055,1.748c-0.606,0.388-1.309,0.628-1.851,1.1"/>
  <!-- Nose bridge -->
  <path style="fill:none;stroke:#263238;stroke-width:1.1031;stroke-linecap:round;stroke-linejoin:round;stroke-miterlimit:10;" d="
    M295.866,262.604c0,0,0.594,3.827,5.726,4.628"/>
  <!-- Eyes -->
  <path style="fill:#263238;" d="M296.4,250.632c0,1.106-0.478,2.003-1.068,2.003c-0.59,0-1.068-0.897-1.068-2.003
    c0-1.106,0.478-2.003,1.068-2.003C295.922,248.63,296.4,249.526,296.4,250.632z"/>
  <path style="fill:#263238;" d="M311.71,251.113c0,1.106-0.478,2.003-1.068,2.003c-0.59,0-1.068-0.897-1.068-2.003
    c0-1.106,0.478-2.003,1.068-2.003C311.231,249.111,311.71,250.007,311.71,251.113z"/>
  <!-- Eyebrows -->
  <path style="fill:none;stroke:#263238;stroke-width:2.2062;stroke-linecap:round;stroke-linejoin:round;stroke-miterlimit:10;" d="
    M308.621,246.265c0,0,4.978-4.978,9.19,0.574"/>
  <path style="fill:none;stroke:#263238;stroke-width:2.2062;stroke-linecap:round;stroke-linejoin:round;stroke-miterlimit:10;" d="
    M298.091,246.361c0,0-3.159-3.542-8.137,0"/>
  <!-- Mouth/smile -->
  <path style="fill:#263238;" d="M288.871,269.948c0,0,3.049,8.404,9.858,10.788c6.81,2.383,15.851-9.986,15.851-9.986l-0.473-1.609
    c0,0-5.924,7.697-12.515,6.385c-6.591-1.313-13.108-10.242-13.108-10.242L288.871,269.948z"/>
  <!-- Ears -->
  <path style="fill:none;stroke:#263238;stroke-width:1.1031;stroke-linecap:round;stroke-linejoin:round;stroke-miterlimit:10;" d="
    M282.762,254.846c0,0-4.059,1.433-5.138-1.73c-1.079-3.163-4.779-11.488-1.542-14.263c3.238-2.775,5.84,3.664,5.84,3.664"/>
  <path style="fill:none;stroke:#263238;stroke-width:1.1031;stroke-linecap:round;stroke-linejoin:round;stroke-miterlimit:10;" d="
    M320.72,256.57c0,0,3.773,0.759,4.852-2.404c1.079-3.163,4.779-11.488,1.542-14.264c-3.238-2.775-5.84,3.664-5.84,3.664"/>
  <!-- Glasses -->
  <ellipse transform="matrix(0.909 -0.4169 0.4169 0.909 -77.7934 145.0154)" style="fill:none;stroke:#263238;stroke-width:1.1031;stroke-linecap:round;stroke-linejoin:round;stroke-miterlimit:10;" cx="293.147" cy="250.632" rx="8.983" ry="8.983"/>
  <ellipse transform="matrix(0.9925 -0.1219 0.1219 0.9925 -28.2199 40.0562)" style="fill:none;stroke:#263238;stroke-width:1.1031;stroke-linecap:round;stroke-linejoin:round;stroke-miterlimit:10;" cx="313.216" cy="250.632" rx="8.983" ry="8.983"/>
  <!-- Chin/jaw area -->
  <path style="fill:none;stroke:#263238;stroke-width:1.1031;stroke-linecap:round;stroke-linejoin:round;stroke-miterlimit:10;" d="
    M286.53,276.513c0,0,5.587,6.156,13.205,9.034c0,0,10.151-2.944,15.318-10.022"/>
  <!-- Hair highlights -->
  <path style="opacity:0.2;fill:none;stroke:#FFFFFF;stroke-width:1.1031;stroke-linecap:round;stroke-linejoin:round;stroke-miterlimit:10;" d="
    M328.142,212.799c-0.904,3.362-3.747,5.963-6.971,7.276c-8.48,3.454-16.716-0.377-25.206-1.127
    c-6.939-0.613-14.588,5.638-15.073,12.762"/>
  <path style="opacity:0.2;fill:none;stroke:#FFFFFF;stroke-width:1.1031;stroke-linecap:round;stroke-linejoin:round;stroke-miterlimit:10;" d="
    M275.626,229.831c0.128-5.608,3.833-10.975,9.032-13.082"/>
</svg>
