<?xml version="1.0" encoding="UTF-8" standalone="no"?>
<svg
   class="animated"
   id="freepik_stories-developer-activity"
   viewBox="0 0 500 500"
   version="1.1"
   sodipodi:docname="developer-activity-animate-glasses.svg"
   inkscape:version="1.2.2 (b0a8486541, 2022-12-01)"
   xmlns:inkscape="http://www.inkscape.org/namespaces/inkscape"
   xmlns:sodipodi="http://sodipodi.sourceforge.net/DTD/sodipodi-0.dtd"
   xmlns="http://www.w3.org/2000/svg"
   xmlns:svg="http://www.w3.org/2000/svg">
  <sodipodi:namedview
     id="namedview2133"
     pagecolor="#505050"
     bordercolor="#ffffff"
     borderopacity="1"
     inkscape:showpageshadow="0"
     inkscape:pageopacity="0"
     inkscape:pagecheckerboard="1"
     inkscape:deskcolor="#505050"
     showgrid="false"
     inkscape:zoom="5.8095893"
     inkscape:cx="324.97994"
     inkscape:cy="222.82126"
     inkscape:window-width="1720"
     inkscape:window-height="1377"
     inkscape:window-x="1720"
     inkscape:window-y="26"
     inkscape:window-maximized="0"
     inkscape:current-layer="freepik_stories-developer-activity" />
  <style
     id="style1979">transform: rotate( -1deg );transform: rotate( 1deg );transform: rotate( 0deg );                    transform: translateY(0px);opacity: 1;transform: translateY(-10px);                    transform: translateY(0px);opacity: 1;svg#freepik_stories-developer-activity.animated #freepik--background-simple--inject-4 { animation: 12s Infinite  linear floating;animation-delay: 0s; }
svg#freepik_stories-developer-activity.animated #freepik--Window--inject-4 { animation: 12s Infinite  linear wind;animation-delay: 0s; }
svg#freepik_stories-developer-activity.animated #freepik--Lines--inject-4 { animation: 12s Infinite  linear wind;animation-delay: 0s; }
svg#freepik_stories-developer-activity.animated #freepik--Graphics--inject-4 { animation: 12s Infinite  linear wind;animation-delay: 0s; }
.floating { 0% }
.wind { 0% }
</style>
  <g
     id="freepik--background-simple--inject-4"
     class="animable"
     style="transform-origin: 250px 220.489px;">
    <path
       d="M456.55,209.11c-48.74-83.48-180.95-53.75-207.95-94.35C234.77,94,219.3,69.87,196.86,57.34c-21.39-12-46.19-16.21-67.81-14.63C51.84,48.36,19.11,117.44,33.94,193.3,53.74,294.49,143.44,397.86,250,398.58,305.74,399,359,379,400.7,350.87l.93-.63C443.33,321.85,493.77,272.84,456.55,209.11Z"
       style="fill: #AC893A; transform-origin: 250px 220.489px;"
       id="elbbsb0zaofxh"
       class="animable" />
    <g
       id="el0n0gqhgm7xd">
      <path
         d="M456.55,209.11c-48.74-83.48-180.95-53.75-207.95-94.35C234.77,94,219.3,69.87,196.86,57.34c-21.39-12-46.19-16.21-67.81-14.63C51.84,48.36,19.11,117.44,33.94,193.3,53.74,294.49,143.44,397.86,250,398.58,305.74,399,359,379,400.7,350.87l.93-.63C443.33,321.85,493.77,272.84,456.55,209.11Z"
         style="fill: rgb(255, 255, 255); opacity: 0.7; transform-origin: 250px 220.489px;"
         class="animable"
         id="elbkpmt6wjhr" />
    </g>
  </g>
  <g
     id="freepik--Lines--inject-4"
     class="animable"
     style="transform-origin: 168.685px 221.905px;">
    <path
       d="M78.19,215.18H72.77a21.93,21.93,0,0,0-21.93,21.93V357.45a21.93,21.93,0,0,0,21.93,21.93h74.36a21.93,21.93,0,0,0,21.93-21.93h0"
       style="fill: none; stroke: rgb(38, 50, 56); stroke-linecap: round; stroke-linejoin: round; stroke-width: 1.10311px; stroke-dasharray: 4.41242; transform-origin: 109.95px 297.28px;"
       id="elps60wmetqx"
       class="animable" />
    <path
       d="M163,101.63V77.86A13.43,13.43,0,0,1,176.4,64.43h96.7a13.43,13.43,0,0,1,13.43,13.43h0"
       style="fill: none; stroke: rgb(38, 50, 56); stroke-linecap: round; stroke-linejoin: round; stroke-width: 1.10311px; stroke-dasharray: 4.41242; transform-origin: 224.765px 83.03px;"
       id="el9cry2aynw7n"
       class="animable" />
  </g>
  <g
     id="freepik--Shadow--inject-4"
     class="animable"
     style="transform-origin: 250px 445.4px;">
    <ellipse
       cx="250"
       cy="445.4"
       rx="191.52"
       ry="26.76"
       style="fill: #AC893A; transform-origin: 250px 445.4px;"
       id="elu4a5r5gyr2c"
       class="animable" />
    <g
       id="el2ogq3zv5y2e">
      <ellipse
         cx="250"
         cy="445.4"
         rx="191.52"
         ry="26.76"
         style="fill: rgb(255, 255, 255); opacity: 0.5; transform-origin: 250px 445.4px;"
         class="animable"
         id="el0o6rptlmualj" />
    </g>
  </g>
  <g
     id="freepik--Window--inject-4"
     class="animable"
     style="transform-origin: 250px 223.55px;">
    <path
       d="M430.54,133.52V313.58a22.2,22.2,0,0,1-22.19,22.2H91.65a22.2,22.2,0,0,1-22.19-22.2V133.52c0-.53,0-1,.07-1.56a22.18,22.18,0,0,1,22.12-20.64h316.7A22.18,22.18,0,0,1,430.47,132C430.52,132.48,430.54,133,430.54,133.52Z"
       style="fill: rgb(255, 255, 255); stroke: rgb(38, 50, 56); stroke-linecap: round; stroke-linejoin: round; stroke-width: 1.10311px; transform-origin: 250px 223.55px;"
       id="eliu9ea8527h"
       class="animable" />
    <path
       d="M80.26,140.28H420.87a0,0,0,0,1,0,0V306.61a20.8,20.8,0,0,1-20.8,20.8h-299a20.8,20.8,0,0,1-20.8-20.8V140.28a0,0,0,0,1,0,0Z"
       style="fill: rgb(38, 50, 56); transform-origin: 250.565px 233.845px;"
       id="ela74p0oa73l"
       class="animable" />
    <g
       id="el8zqgegxsqn">
      <path
         d="M420.88,140.28V306.61a20.69,20.69,0,0,1-20.57,20.8H100.83a20.69,20.69,0,0,1-20.57-20.8V140.28Z"
         style="fill: rgb(255, 255, 255); opacity: 0.2; transform-origin: 250.57px 233.845px;"
         class="animable"
         id="ello6rze4ycz" />
    </g>
    <path
       d="M430.47,132H69.53a22.18,22.18,0,0,1,22.12-20.64h316.7A22.18,22.18,0,0,1,430.47,132Z"
       style="fill: #AC893A; stroke: rgb(38, 50, 56); stroke-miterlimit: 10; stroke-width: 1.10311px; transform-origin: 250px 121.68px;"
       id="elsnn4q89qf1i"
       class="animable" />
    <path
       d="M113.88,121.64a3.93,3.93,0,1,1-3.93-3.93A3.93,3.93,0,0,1,113.88,121.64Z"
       style="fill: rgb(38, 50, 56); transform-origin: 109.95px 121.64px;"
       id="elntooryhh5k"
       class="animable" />
    <path
       d="M130.5,121.64a3.93,3.93,0,1,1-3.93-3.93A3.93,3.93,0,0,1,130.5,121.64Z"
       style="fill: rgb(38, 50, 56); transform-origin: 126.57px 121.64px;"
       id="eldt387kvx31u"
       class="animable" />
    <circle
       cx="143.19"
       cy="121.64"
       r="3.93"
       style="fill: rgb(38, 50, 56); transform-origin: 143.19px 121.64px;"
       id="elafesg701jrj"
       class="animable" />
    <path
       d="M420.87,140.28V306.61a20.8,20.8,0,0,1-20.8,20.8h-299a20.8,20.8,0,0,1-20.4-16.76v-.06a21,21,0,0,1-.38-4V140.28Z"
       style="fill: none; stroke: rgb(38, 50, 56); stroke-miterlimit: 10; stroke-width: 1.10311px; transform-origin: 250.58px 233.845px;"
       id="elg6jkzpv6ahm"
       class="animable" />
    <path
       d="M420.55,166a20.94,20.94,0,0,0-4.62-1.91l-1.87-8.35h-7.94l-1.85,8.35a20.25,20.25,0,0,0-4.64,1.91l-7.17-4.59L386.85,167l4.51,7.17a20.35,20.35,0,0,0-1.91,4.64l-8.35,1.85v7.94l8.35,1.87a20,20,0,0,0,1.91,4.66l-4.59,7.22,5.62,5.61,7.21-4.59a20.39,20.39,0,0,0,4.63,1.92l1.86,8.34H414l1.86-8.34a20.78,20.78,0,0,0,4.62-1.92l.37.24V165.8Zm-10.44,29a10.26,10.26,0,1,1,10.26-10.25A10.25,10.25,0,0,1,410.11,195Z"
       style="fill: rgb(38, 50, 56); transform-origin: 400.975px 184.685px;"
       id="ela493xrpqpg"
       class="animable" />
    <path
       d="M277.45,174.05V157.31l-17.6-3.91a45.51,45.51,0,0,0-4-9.77l2.13-3.35h-83.1l2.05,3.26a43,43,0,0,0-4,9.76l-17.61,3.92V174l17.61,3.93a43.65,43.65,0,0,0,4,9.84l-9.67,15.21,11.85,11.84,15.2-9.68a44.38,44.38,0,0,0,9.77,4.05L208,226.74H224.7l3.94-17.59a44.64,44.64,0,0,0,9.74-4.05l15.21,9.68,11.84-11.84-9.61-15.21a45.87,45.87,0,0,0,4-9.75Zm-61,13.26a21.63,21.63,0,1,1,21.63-21.63A21.62,21.62,0,0,1,216.45,187.31Z"
       style="fill: rgb(38, 50, 56); transform-origin: 216.385px 183.51px;"
       id="elerkpox1wa3s"
       class="animable" />
    <path
       d="M166.38,289l.71-13.29-13.77-3.88a37.21,37.21,0,0,0-2.82-7.9l8.32-11.68-8.92-9.89-12.46,7a36.51,36.51,0,0,0-7.59-3.63l-2.38-14.12L114.19,231l-3.84,13.81a35,35,0,0,0-7.9,2.8l-11.67-8.31-9.91,8.91,7.06,12.47a35,35,0,0,0-3.64,7.58l-4,.66v18l2.92.82A34.6,34.6,0,0,0,86,295.65l-5.74,8.05.38,6.89v.06l5.93,6.57,12.48-7.05a34.66,34.66,0,0,0,7.61,3.67L109,327.4h0l.11.57,13.28.7.35-1.27h0l3.49-12.53a35.53,35.53,0,0,0,7.94-2.8l11.65,8.3,9.9-8.9-7-12.48a34.53,34.53,0,0,0,3.59-7.57Zm-35.27-20.75a17.2,17.2,0,1,0-1.28,24.28A17.2,17.2,0,0,0,131.11,268.29Z"
       style="fill: rgb(38, 50, 56); transform-origin: 123.675px 279.835px;"
       id="elsh2qreybmkb"
       class="animable" />
    <path
       d="M272.6,269.19a27.25,27.25,0,0,0,.81-6.29l9.55-5-2.64-9.69-10.78.5a27.27,27.27,0,0,0-3.87-5l3.19-10.31-8.7-5-7.28,7.94a28.8,28.8,0,0,0-6.27-.8l-5-9.55-9.68,2.63.51,10.79a27.24,27.24,0,0,0-5,3.87l-10.32-3.19-5,8.69,8,7.27a26,26,0,0,0-.79,6.27l-9.57,5,2.64,9.68,10.8-.51a25.39,25.39,0,0,0,3.85,5l-3.21,10.26,8.71,5,7.24-7.88a26.12,26.12,0,0,0,6.29.79l5,9.56,9.68-2.63-.43-9.22-.07-1.58a26.41,26.41,0,0,0,5.06-3.87l10.31,3.2,4.26-7.44.72-1.26Zm-22.87,5.88a13,13,0,1,1,9.1-15.9A13,13,0,0,1,249.73,275.07Z"
       style="fill: rgb(38, 50, 56); transform-origin: 246.36px 262.605px;"
       id="elecx2jrawu7"
       class="animable" />
    <path
       d="M383.32,286.23l2.2-13.3-13.46-5.41a35.27,35.27,0,0,0-1.93-8.3l9.69-10.79-7.84-11-13.36,5.67a35.38,35.38,0,0,0-7.22-4.48l-.78-14.49-13.3-2.2-5.45,13.4a37.15,37.15,0,0,0-8.27,1.95l-10.82-9.69-10.95,7.84,5.68,13.35a36.24,36.24,0,0,0-4.05,6.29c-.15.31-.31.62-.45.93l-14.48.8-2.21,13.28,2.18.88,11.28,4.55a35.18,35.18,0,0,0,1.93,8.26L292,294.63l7.85,11,13.35-5.7a35.06,35.06,0,0,0,7.21,4.52l.75,14.42,13.29,2.2,5.44-13.3a35.13,35.13,0,0,0,8.28-1.94l10.8,9.69,11-7.85-5.68-13.36a34.78,34.78,0,0,0,4.55-7.25Zm-37.3-.6a17.41,17.41,0,1,1,4-24.29A17.41,17.41,0,0,1,346,285.63Z"
       style="fill: rgb(38, 50, 56); transform-origin: 335.92px 271.5px;"
       id="elslpygb102zl"
       class="animable" />
  </g>
  <g
     id="freepik--Graphics--inject-4"
     class="animable"
     style="transform-origin: 236.115px 228.18px;">
    <rect
       x="85.39"
       y="187.77"
       width="130.8"
       height="171.01"
       rx="13.11"
       style="fill: #AC893A; stroke: rgb(38, 50, 56); stroke-miterlimit: 10; stroke-width: 1.10311px; transform-origin: 150.79px 273.275px;"
       id="elxwr9hk6z5i8"
       class="animable" />
    <g
       id="elb0uiz37bshg">
      <rect
         x="85.39"
         y="187.77"
         width="130.8"
         height="171.01"
         rx="13.11"
         style="opacity: 0.2; transform-origin: 150.79px 273.275px;"
         class="animable"
         id="el6akqbxnvnaj" />
    </g>
    <path
       d="M228.36,213.8V358.59a13.11,13.11,0,0,1-13.11,13.12H110.67a13.11,13.11,0,0,1-13.1-13.12V213.8a13.11,13.11,0,0,1,13.1-13.11H215.25A13.11,13.11,0,0,1,228.36,213.8Z"
       style="fill: rgb(255, 255, 255); stroke: rgb(38, 50, 56); stroke-linecap: round; stroke-linejoin: round; stroke-width: 1.10311px; transform-origin: 162.965px 286.2px;"
       id="el4chxvu6ukjz"
       class="animable" />
    <path
       d="M228.36,213.8v7.75H97.57V213.8a13.11,13.11,0,0,1,13.1-13.11H215.25A13.11,13.11,0,0,1,228.36,213.8Z"
       style="fill: #AC893A; stroke: rgb(38, 50, 56); stroke-miterlimit: 10; stroke-width: 1.10311px; transform-origin: 162.965px 211.12px;"
       id="elpo8pkjc3mk8"
       class="animable" />
    <rect
       x="109.87"
       y="230.53"
       width="32.18"
       height="5.4"
       style="fill: #AC893A; transform-origin: 125.96px 233.23px;"
       id="elysrpvt9sr2d"
       class="animable" />
    <rect
       x="109.87"
       y="278.92"
       width="32.18"
       height="5.4"
       style="fill: #AC893A; transform-origin: 125.96px 281.62px;"
       id="el3rj8l31e1ci"
       class="animable" />
    <rect
       x="109.87"
       y="322.8"
       width="32.18"
       height="5.4"
       style="fill: #AC893A; transform-origin: 125.96px 325.5px;"
       id="elrwg1v09q9kk"
       class="animable" />
    <rect
       x="109.87"
       y="243.9"
       width="91.39"
       height="3.96"
       style="fill: rgb(38, 50, 56); transform-origin: 155.565px 245.88px;"
       id="el0nfn0ujbai1"
       class="animable" />
    <rect
       x="109.87"
       y="251.47"
       width="74.91"
       height="3.86"
       style="fill: rgb(38, 50, 56); transform-origin: 147.325px 253.4px;"
       id="elflf0z2olfm"
       class="animable" />
    <rect
       x="109.87"
       y="258.92"
       width="84.72"
       height="3.86"
       style="fill: rgb(38, 50, 56); transform-origin: 152.23px 260.85px;"
       id="elyn2esmhkxio"
       class="animable" />
    <rect
       x="109.87"
       y="266.36"
       width="84.72"
       height="3.86"
       style="fill: rgb(38, 50, 56); transform-origin: 152.23px 268.29px;"
       id="elajln8krce6"
       class="animable" />
    <rect
       x="109.87"
       y="287.78"
       width="91.39"
       height="3.96"
       style="fill: rgb(38, 50, 56); transform-origin: 155.565px 289.76px;"
       id="eleo5xedz0hp"
       class="animable" />
    <rect
       x="109.87"
       y="295.35"
       width="74.91"
       height="3.86"
       style="fill: rgb(38, 50, 56); transform-origin: 147.325px 297.28px;"
       id="el5kgotsbp3xd"
       class="animable" />
    <rect
       x="109.87"
       y="302.8"
       width="84.72"
       height="3.86"
       style="fill: rgb(38, 50, 56); transform-origin: 152.23px 304.73px;"
       id="eljke06gd6r0f"
       class="animable" />
    <rect
       x="109.87"
       y="335.96"
       width="91.39"
       height="3.96"
       style="fill: rgb(38, 50, 56); transform-origin: 155.565px 337.94px;"
       id="el01ptg0vt6ucg"
       class="animable" />
    <rect
       x="109.87"
       y="343.54"
       width="74.91"
       height="3.86"
       style="fill: rgb(38, 50, 56); transform-origin: 147.325px 345.47px;"
       id="elj115c8q458c"
       class="animable" />
    <rect
       x="109.87"
       y="350.99"
       width="84.72"
       height="3.86"
       style="fill: rgb(38, 50, 56); transform-origin: 152.23px 352.92px;"
       id="elgr804uph6tj"
       class="animable" />
    <path
       d="M375.77,100.29v58.52a15.63,15.63,0,0,1-15.64,15.63H225.35a15.63,15.63,0,0,1-15.64-15.63V100.29a15.65,15.65,0,0,1,15.64-15.64H360.13A15.64,15.64,0,0,1,375.77,100.29Z"
       style="fill: rgb(255, 255, 255); stroke: rgb(34, 34, 33); stroke-miterlimit: 10; stroke-width: 1.10311px; transform-origin: 292.74px 129.545px;"
       id="el37v1500q7fs"
       class="animable" />
    <path
       d="M375.77,100.29v1.34H209.71v-1.34a15.65,15.65,0,0,1,15.64-15.64H360.13A15.64,15.64,0,0,1,375.77,100.29Z"
       style="fill: #AC893A; stroke: rgb(38, 50, 56); stroke-miterlimit: 10; stroke-width: 1.10311px; transform-origin: 292.74px 93.14px;"
       id="elm6lo4ws7jl"
       class="animable" />
    <path
       d="M234.11,95.94a2.4,2.4,0,1,1,0-3.39A2.41,2.41,0,0,1,234.11,95.94Z"
       style="fill: rgb(38, 50, 56); transform-origin: 232.409px 94.245px;"
       id="elqzwupoijb5n"
       class="animable" />
    <path
       d="M245.23,95.94a2.4,2.4,0,1,1,0-3.39A2.41,2.41,0,0,1,245.23,95.94Z"
       style="fill: rgb(38, 50, 56); transform-origin: 243.529px 94.245px;"
       id="eltb6hry3ykns"
       class="animable" />
    <path
       d="M256.35,95.94a2.4,2.4,0,1,1,0-3.39A2.41,2.41,0,0,1,256.35,95.94Z"
       style="fill: rgb(38, 50, 56); transform-origin: 254.649px 94.245px;"
       id="eldn0ucrzgel4"
       class="animable" />
    <rect
       x="220.3"
       y="112.39"
       width="54.28"
       height="46.92"
       style="fill: none; stroke: rgb(38, 50, 56); stroke-linecap: round; stroke-linejoin: round; stroke-width: 1.10311px; stroke-dasharray: 4.41242; transform-origin: 247.44px 135.85px;"
       id="eluhunfwxlv2"
       class="animable" />
    <rect
       x="282.96"
       y="112.39"
       width="62.47"
       height="3.3"
       style="fill: rgb(38, 50, 56); transform-origin: 314.195px 114.04px;"
       id="elr0g9r5x6rfe"
       class="animable" />
    <rect
       x="282.96"
       y="119.22"
       width="47.92"
       height="3.29"
       style="fill: rgb(38, 50, 56); transform-origin: 306.92px 120.865px;"
       id="elk8bt4w03xp7"
       class="animable" />
    <rect
       x="282.96"
       y="126.02"
       width="71.35"
       height="3.33"
       style="fill: rgb(38, 50, 56); transform-origin: 318.635px 127.685px;"
       id="eljeb238xggfr"
       class="animable" />
    <rect
       x="282.96"
       y="132.65"
       width="60.76"
       height="3.33"
       style="fill: rgb(38, 50, 56); transform-origin: 313.34px 134.315px;"
       id="elepyr5guibk6"
       class="animable" />
    <rect
       x="370.17142"
       y="246.13435"
       width="43.610001"
       height="30.99"
       rx="6.5300002"
       style="fill:#ffffff;stroke:#263238;stroke-width:1.10311px;stroke-linecap:round;stroke-linejoin:round"
       id="elt9stt4mek3"
       class="animable" />
    <polyline
       points="357.3 254.85 348.91 260.11 356.7 267.01"
       style="fill:none;stroke:#263238;stroke-width:1.10311px;stroke-linecap:round;stroke-linejoin:round"
       id="elbhnemjswo37"
       class="animable"
       transform="translate(26.941405,0.60434908)" />
    <polyline
       points="372.58 267.51 380.12 261.09 371.42 255.39"
       style="fill:none;stroke:#263238;stroke-width:1.10311px;stroke-linecap:round;stroke-linejoin:round"
       id="elv3dk3kn881"
       class="animable"
       transform="translate(26.941405,0.60434908)" />
    <line
       x1="388.32141"
       y1="272.07434"
       x2="394.51141"
       y2="252.65436"
       style="fill:none;stroke:#263238;stroke-width:1.10311px;stroke-linecap:round;stroke-linejoin:round"
       id="elwx7hzzyfb0j"
       class="animable" />
  </g>
  <g
     id="freepik--Character--inject-4"
     class="animable"
     transform="matrix(1.3244437,0,0,1.3510479,-107.42663,-161.77413)">
    <path
       d="m 296.86,440.47 c 0,0 -29,8.31 -33.05,9.75 -3.68,1.3 -13.66,4.8 -21.15,3.71 a 15.89,15.89 0 0 1 -2.14,-0.46 c -7.59,-2.26 -11,-4.37 -12,-9.14 -1,-4.77 2.78,-8.29 6.42,-10.54 3.64,-2.25 23.38,-4.6 23.38,-4.6 l 4.77,1.4 v 0 z"
       style="fill:#ac893a"
       id="el07wgsjp2frbv"
       class="animable" />
    <path
       d="m 242.66,453.93 a 15.89,15.89 0 0 1 -2.14,-0.46 c -7.59,-2.26 -11,-4.37 -12,-9.14 -1,-4.77 2.78,-8.29 6.42,-10.54 3.64,-2.25 23.38,-4.6 23.38,-4.6 l 4.77,1.4 c -4.32,2 -20.4,3.09 -23.91,5.11 -3.51,2.02 -5.2,5.82 -3.13,11 1.11,2.7 4.07,5.35 6.61,7.23 z"
       style="fill:#ffffff"
       id="elwqwh8jn8pkq"
       class="animable" />
    <path
       d="m 292.5,441.65 c 0,0 -21.78,5.64 -30.42,9.25 -8.64,3.61 -25.11,5.19 -31,-2.25 -5.89,-7.44 -0.68,-13.86 5.19,-15.29 5.87,-1.43 17.74,-3.68 24.22,-2.77"
       style="fill:none;stroke:#263238;stroke-width:1.10311px;stroke-linecap:round;stroke-linejoin:round"
       id="el2g8b5vu3xts"
       class="animable" />
    <path
       d="m 243.09,453.54 c 0,0 -11.08,-6.08 -7.4,-14.6 2.72,-6.28 17.5,-4.92 24.82,-8.35"
       style="fill:none;stroke:#263238;stroke-width:1.10311px;stroke-linecap:round;stroke-linejoin:round"
       id="elq2ams7mpupn"
       class="animable" />
    <path
       d="m 385.19,455.28 c -0.3,3 -1.35,5.81 -4.35,7.58 -2,1.18 -4.84,1.88 -8.91,1.84 -10.17,-0.13 -29.29,-7.4 -29.29,-7.4 l -17.9,-9.9 9.31,-14.73 2.55,-4 6.58,1.48 c 0,0 5.45,3.09 10.93,5.55 5.48,2.46 18.79,3 23.48,6.77 4.69,3.77 8.11,7.87 7.6,12.81 z"
       style="fill:#ac893a"
       id="el1altunrsf37"
       class="animable" />
    <path
       d="m 385.19,455.28 c -0.3,3 -1.35,5.81 -4.35,7.58 a 13.39,13.39 0 0 0 -0.5,-8.94 c -2,-4.49 -8.51,-8.45 -17.07,-9.11 -8.56,-0.66 -15.11,-4.66 -18.54,-6.45 -2.68,-1.39 -8.33,-4.43 -10.68,-5.69 l 2.55,-4 6.58,1.48 c 0,0 5.45,3.09 10.93,5.55 5.48,2.46 18.79,3 23.48,6.77 4.69,3.77 8.11,7.87 7.6,12.81 z"
       style="fill:#ffffff"
       id="el1bjwur6sqrb"
       class="animable" />
    <path
       d="m 328.71,450.18 a 112.86,112.86 0 0 0 41.9,14.31 c 3.26,0.39 7.05,0.45 9.23,-2 a 6.82,6.82 0 0 0 1.5,-5.11 c -0.39,-4.6 -4.26,-8.24 -8.5,-10.07 -4.24,-1.83 -8.91,-2.25 -13.42,-3.26 a 53.38,53.38 0 0 1 -12.9,-4.72 c -3.24,-1.69 -6.37,-3.74 -9.94,-4.5 -3.57,-0.76 -7.82,0.16 -9.73,3.28"
       style="fill:none;stroke:#263238;stroke-width:1.10311px;stroke-linecap:round;stroke-linejoin:round"
       id="elkunid73i6eb"
       class="animable" />
    <path
       d="m 378.64,463.74 a 11.92,11.92 0 0 0 6.55,-8.46 c 0.65,-4.33 -1.82,-8.69 -5.29,-11.35 -3.47,-2.66 -7.82,-3.92 -12.11,-4.81 -4.29,-0.89 -8.68,-1.49 -12.79,-3.12 -6.27,-2.46 -12.46,-7.3 -19,-5.57"
       style="fill:none;stroke:#263238;stroke-width:1.10311px;stroke-linecap:round;stroke-linejoin:round"
       id="els2u08ga23he"
       class="animable" />
    <path
       d="m 348.91,295.26 -30.29,-11.52 -0.38,-0.15 c 0,0 0.11,-0.8 0.2,-2 0.19,-2.42 0.29,-6.36 -0.85,-7.69 -1.69,-2 -6.47,-0.32 -11.14,-2.46 -4.67,-2.14 -13.3,1.69 -13.3,1.69 0,0 -6.24,-1.15 -9,3.35 -1.4,3.63 -0.92,9 -0.92,9 l -0.57,0.2 c -3.61,1.35 -23.25,8.74 -27.4,11.71 -4.59,3.25 -9.67,36.62 -11.3,46.42 -1.63,9.8 -4.53,18.63 -3.06,22 1.47,3.37 22.57,19.62 34.71,23.81 12.14,4.19 55.19,3 55.19,3 0,0 0.7,-0.19 1.95,-0.59 7.28,-2.34 33.11,-12 46.82,-34.68 0.02,0.04 -13.26,-43.49 -30.66,-62.09 z m -81.84,56.13 c -2.23,1.58 -1,7.7 -1,7.7 l -3.79,-3.34 9.52,-23.41 4.06,18 c 0,0 -6.56,-0.52 -8.79,1.05 z m 76.16,14.87 c -1.05,0.54 3,-10.71 1.08,-13.26 -1.92,-2.55 -7.71,-2.31 -7.71,-2.31 l 0.49,-3.07 3.43,-17.6 1.14,-1.35 c 0,0 11.78,20.19 13.89,27.31 0,0.02 -12.84,10.28 -12.32,10.28 z"
       style="fill:#ac893a"
       id="el6f4hjfzuonx"
       class="animable" />
    <path
       d="m 291.72,222.25 -15.64,16.6 c 0,0 -2.15,1.91 -1.3,6.72 0.85,4.81 2.85,9 4.36,9.28 a 21.37,21.37 0 0 0 3.62,0.32 c 0,0 3.35,7.26 5.73,10.11 0,0 0.82,11.21 0.38,14.32 0,0 5.62,4.91 10.91,5.53 5.29,0.62 13.46,-7.48 13.46,-7.48 l 2,-9.92 c 0,0 4.8,-7.28 5.12,-9.22 0.32,-1.94 2.52,-1.44 3.6,-2.4 1.08,-0.96 3.57,-5.23 4,-9.27 0.43,-4.04 0.44,-8.68 -4.25,-7.32 -4.07,-1.09 -1.52,-9.69 -1.52,-9.69 l -7.15,-6.3 z"
       style="fill:#ffffff"
       id="elfosma4h29vn"
       class="animable" />
    <g
       id="el9yh1leqol8n">
      <path
         d="m 318.62,283.74 a 17.67,17.67 0 0 1 -0.81,1.81 c -2.58,4.86 -13.82,14.13 -13.82,14.13 l -3.4,-10.45 -1.86,10.45 c -3.75,-1.64 -15.19,-11.55 -15.19,-11.55 0,0 -0.39,-0.93 -0.86,-2.38 l 0.57,-0.2 c 0,0 -0.48,-5.41 0.92,-9 2.74,-4.5 9,-3.35 9,-3.35 0,0 8.63,-3.83 13.3,-1.69 4.67,2.14 9.45,0.48 11.14,2.46 1.69,1.98 0.65,9.66 0.65,9.66 z"
         style="opacity:0.5;fill:#ffffff"
         class="animable"
         id="el6tdhywy767h" />
    </g>
    <g
       id="el73xyca3ib4o">
      <path
         d="m 348.91,295.26 -30.29,-11.52 -0.38,-0.15 c 0,0 0.11,-0.8 0.2,-2 l -0.63,3.93 -4.48,6.08 a 124,124 0 0 1 14,6.16 12.28,12.28 0 0 1 6.4,12.24 l -5.58,47.75 -2.29,27.11 6.91,7.17 c 7.28,-2.34 33.11,-12 46.82,-34.68 0,0.04 -13.28,-43.49 -30.68,-62.09 z m -5.68,71 c -1.05,0.54 3,-10.71 1.08,-13.26 -1.92,-2.55 -7.71,-2.31 -7.71,-2.31 l 0.49,-3.07 3.43,-17.6 1.14,-1.35 c 0,0 11.78,20.19 13.89,27.31 0,0.02 -12.84,10.28 -12.32,10.28 z"
         style="opacity:0.2"
         class="animable"
         id="elo1qrb32clx8" />
    </g>
    <g
       id="eln7h1zz067fa">
      <path
         d="m 277.87,353 -4.71,-15.74 c 0,0 -8.45,-28.81 -14.24,-35.91 l 1.52,20.26 c 0,0 -5,24.2 -9.57,31.39 -4.57,7.19 -5.59,9 0,9 5.59,0 19.2,10.84 19.2,10.84 l -1.05,-9 z m -11.87,6.09 -3.79,-3.34 9.52,-23.41 4.06,18 c 0,0 -6.52,-0.49 -8.75,1.08 -2.23,1.57 -1.04,7.67 -1.04,7.67 z"
         style="opacity:0.2"
         class="animable"
         id="elc3qkow0063" />
    </g>
    <path
       d="m 288.49,265.28 c 0,0 0.86,8.49 0,12.37"
       style="fill:none;stroke:#263238;stroke-width:1.10311px;stroke-linecap:round;stroke-linejoin:round"
       id="el6ogj13gjdqy"
       class="animable" />
    <path
       d="m 314.11,276.51 a 36.53,36.53 0 0 1 0.94,-8.11"
       style="fill:none;stroke:#263238;stroke-width:1.10311px;stroke-linecap:round;stroke-linejoin:round"
       id="elh6ob4f98wb5"
       class="animable" />
    <path
       d="m 304,247.71 a 26.82,26.82 0 0 0 -0.4,5.37 6.05,6.05 0 0 0 1.32,4.2 c 0.57,0.58 1.39,1.05 1.5,1.85 a 2,2 0 0 1 -1.06,1.75 15.55,15.55 0 0 0 -1.85,1.1"
       style="fill:none;stroke:#263238;stroke-width:1.10311px;stroke-linecap:round;stroke-linejoin:round"
       id="elo1sgjreo1vn"
       class="animable" />
    <path
       d="m 298.90461,268.17174 c 0.0921,0.15036 5.22477,2.56144 7.85313,-1.2108"
       style="fill:none;stroke:#263238;stroke-width:1.10311px;stroke-linecap:round;stroke-linejoin:round"
       id="el4nr2qkuv744"
       class="animable"
       sodipodi:nodetypes="cc" />
    <path
       d="m 296.66725,252.74726 c 0,1.11 -0.48,2 -1.07,2 -0.59,0 -1.07,-0.89 -1.07,-2 0,-1.11 0.48,-2 1.07,-2 0.59,0 1.07,0.9 1.07,2 z"
       style="fill:#263238"
       id="el2uq6he26t9j"
       class="animable" />
    <path
       d="m 312.18364,252.95535 c 0,1.11 -0.48,2 -1.07,2 -0.59,0 -1.07,-0.9 -1.07,-2 0,-1.1 0.48,-2 1.07,-2 0.59,0 1.07,0.89 1.07,2 z"
       style="fill:#263238"
       id="elxn3c24jkfgo"
       class="animable" />
    <path
       d="m 308.62,246.26 c 0,0 5,-5 9.19,0.58"
       style="fill:none;stroke:#263238;stroke-width:2.20621px;stroke-linecap:round;stroke-linejoin:round"
       id="elf3z3gf1hyo"
       class="animable" />
    <path
       d="m 298.09,246.36 c 0,0 -3.16,-3.54 -8.14,0"
       style="fill:none;stroke:#263238;stroke-width:2.20621px;stroke-linecap:round;stroke-linejoin:round"
       id="ellugof4awkhb"
       class="animable" />
    <path
       d="m 282.76,254.85 c 0,0 -4.06,1.43 -5.14,-1.73 -1.08,-3.16 -4.78,-11.49 -1.54,-14.27 3.24,-2.78 5.84,3.67 5.84,3.67"
       style="fill:none;stroke:#263238;stroke-width:1.10311px;stroke-linecap:round;stroke-linejoin:round"
       id="el03lw1q13tow8"
       class="animable" />
    <path
       d="m 320.72,256.57 c 0,0 3.77,0.76 4.85,-2.4 1.08,-3.16 4.78,-11.49 1.54,-14.27 -3.24,-2.78 -5.84,3.67 -5.84,3.67"
       style="fill:none;stroke:#263238;stroke-width:1.10311px;stroke-linecap:round;stroke-linejoin:round"
       id="elaj7g3xpj80n"
       class="animable" />
    <path
       d="m 282.07009,250.90422 c 0.20667,1.3856 2.53308,-1.24742 3.40991,-2.37422 0.53549,-0.98908 0.87503,-2.07223 1,-3.19 0.37124,-2.1266 0.5586,-4.28124 0.56,-6.44 -0.044,-0.84337 0.0334,-1.68868 0.23,-2.51 0.30025,-0.82651 0.76264,-1.58469 1.36,-2.23 1.41,-1.66 3.12,-3.06 4.47,-4.78 1.4625,-1.64039 2.18576,-3.81019 2,-6 6.26263,5.16355 14.48938,7.29071 22.47,5.81 7.15,-1.4 14,-7.67 13.17,-15.55 -0.3214,-2.70882 -2.33191,-4.91233 -5,-5.48 -3.53,-0.88 -6.7,1 -9.9,2.21 -5.83,2.2 -11.54,-1.58 -17.43,-2.21 -5,-0.55 -11.23,0.08 -13.85,5.09 0,0 -9,1.06 -13,8.5 -4,7.44 3.57,17.73 3.57,17.73 0,0 1.90463,-3.4273 5.83463,4.0127 z"
       style="fill:#263238"
       id="elvvpqdninjif"
       class="animable"
       sodipodi:nodetypes="scccccccccccccsccs" />
    <path
       d="m 317,226.68 c 0,0 -2.34,12.2 3.77,18.11 0,0 1.34,-3.67 2.69,-4.57 a 14.13,14.13 0 0 0 -1.07,-13.54 c -4.52,-7.1 -5.39,0 -5.39,0 z"
       style="fill:#263238"
       id="el97p8ftgd8q"
       class="animable" />
    <g
       id="elg4ndwys3zyn">
      <path
         d="m 328.14,212.8 a 11.49,11.49 0 0 1 -7,7.27 c -8.48,3.46 -16.71,-0.37 -25.21,-1.12 -6.93,-0.62 -14.58,5.64 -15.07,12.76"
         style="opacity:0.2;fill:none;stroke:#ffffff;stroke-width:1.10311px;stroke-linecap:round;stroke-linejoin:round"
         class="animable"
         id="el7azrl4dmrff" />
    </g>
    <g
       id="elkxogt0pginb">
      <path
         d="m 275.63,229.83 a 14.81,14.81 0 0 1 9,-13.08"
         style="opacity:0.2;fill:none;stroke:#ffffff;stroke-width:1.10311px;stroke-linecap:round;stroke-linejoin:round"
         class="animable"
         id="el8h0zqjsht5" />
    </g>
    <path
       d="m 286.53,276.51 a 38.71,38.71 0 0 0 13.21,9 c 0,0 10.15,-2.95 15.31,-10"
       style="fill:none;stroke:#263238;stroke-width:1.10311px;stroke-linecap:round;stroke-linejoin:round"
       id="el0d4dk4jqawmq"
       class="animable" />
    <g
       id="el6qfnpvzsxh4" />
    <path
       d="m 288.49,273.16 a 7,7 0 0 0 -4.33,3.35 c -1.59,2.8 -0.63,11.61 -0.63,11.61 0,0 8.21,8.12 15.2,11.55 l 2.06,-11.59 3.2,11.59 c 0,0 10.82,-7.65 13.82,-14.12 0,0 1,-7.55 0,-10 a 3.47,3.47 0 0 0 -3.23,-2.37"
       style="fill:none;stroke:#263238;stroke-width:1.10311px;stroke-linecap:round;stroke-linejoin:round"
       id="elasu02tbtctq"
       class="animable" />
    <path
       d="m 275.63,350.7 c 0,0 -3.21,-21.5 -7.48,-30.27"
       style="fill:none;stroke:#263238;stroke-width:1.10311px;stroke-linecap:round;stroke-linejoin:round"
       id="elvsfob3tgmbr"
       class="animable" />
    <path
       d="m 258.92,301.35 a 87,87 0 0 1 6.64,11.11"
       style="fill:none;stroke:#263238;stroke-width:1.10311px;stroke-linecap:round;stroke-linejoin:round"
       id="elpikd4590lp"
       class="animable" />
    <path
       d="m 343.23,317.4 a 62.1,62.1 0 0 1 3.53,-10.49"
       style="fill:none;stroke:#263238;stroke-width:1.10311px;stroke-linecap:round;stroke-linejoin:round"
       id="ellmxgqtffckn"
       class="animable" />
    <path
       d="m 336.6,350.7 c 0,0 2.31,-14.74 5.07,-26.88"
       style="fill:none;stroke:#263238;stroke-width:1.10311px;stroke-linecap:round;stroke-linejoin:round"
       id="elvo9cpl49jw"
       class="animable" />
    <path
       d="m 340.52,330 a 17,17 0 0 1 8.94,-6.12"
       style="fill:none;stroke:#263238;stroke-width:1.10311px;stroke-linecap:round;stroke-linejoin:round"
       id="eldg2v822mqmh"
       class="animable" />
    <path
       d="m 318.25,283.59 c 0,0 18.63,7.45 30.66,11.68 0,0 14.8,13.91 30.67,62.12 0,0 -14.54,24.46 -42.2,32.3"
       style="fill:none;stroke:#263238;stroke-width:1.10311px;stroke-linecap:round;stroke-linejoin:round"
       id="elysjd4lpqwnh"
       class="animable" />
    <path
       d="M 342.18,367.13 355.55,356 c 0,0 7.07,-5.37 14.42,-1.7"
       style="fill:none;stroke:#263238;stroke-width:1.10311px;stroke-linecap:round;stroke-linejoin:round"
       id="eltj8iuxtno4n"
       class="animable" />
    <path
       d="m 341.67,328.67 c 0,0 11.05,16.33 13.88,27.33"
       style="fill:none;stroke:#263238;stroke-width:1.10311px;stroke-linecap:round;stroke-linejoin:round"
       id="elnsjs5hhvvei"
       class="animable" />
    <path
       d="M 266.15,359.71 262.24,356 c 0,0 -5.8,-1 -12.38,3.39"
       style="fill:none;stroke:#263238;stroke-width:1.10311px;stroke-linecap:round;stroke-linejoin:round"
       id="elnn3eu1csw5"
       class="animable" />
    <path
       d="m 262.24,356 c 0,0 4.86,-16 9.65,-24.19"
       style="fill:none;stroke:#263238;stroke-width:1.10311px;stroke-linecap:round;stroke-linejoin:round"
       id="elcxarm0w74au"
       class="animable" />
    <path
       d="m 283.25,285.55 c 0,0 -26.81,10.06 -29.44,13 -2.63,2.94 -12.62,59.19 -12.89,65.63 -0.23,5.76 20.65,18.69 31,24.14"
       style="fill:none;stroke:#263238;stroke-width:1.10311px;stroke-linecap:round;stroke-linejoin:round"
       id="eltdtthgleo3"
       class="animable" />
    <path
       d="m 334.32,398.78 h -61 a 1.43,1.43 0 0 1 -1.43,-1.43 v 0 a 1.43,1.43 0 0 1 1.43,-1.43 h 61 a 1.43,1.43 0 0 1 1.43,1.43 v 0 a 1.43,1.43 0 0 1 -1.43,1.43 z"
       style="fill:#263238"
       id="eliwcbn8jigk"
       class="animable" />
    <path
       d="m 336.46,394 8.17,-38.4 a 4.08,4.08 0 0 0 -4,-4.93 h -71.3 a 4.08,4.08 0 0 0 -4,4.88 l 7.33,37.12 a 4.08,4.08 0 0 0 3.91,3.29 l 55.79,1.28 a 4.1,4.1 0 0 0 4.1,-3.24 z"
       style="fill:#ffffff;stroke:#263238;stroke-width:1.10311px;stroke-linecap:round;stroke-linejoin:round"
       id="elw3ymos1see"
       class="animable" />
    <path
       d="m 310.44,372.83 a 5.69,5.69 0 1 1 -5.69,-5.7 5.69,5.69 0 0 1 5.69,5.7 z"
       style="fill:#263238"
       id="elwjl71r6niom"
       class="animable" />
    <line
       x1="321.63"
       y1="354.34"
       x2="330.10001"
       y2="354.34"
       style="fill:none;stroke:#263238;stroke-width:1.10311px;stroke-linecap:round;stroke-linejoin:round"
       id="elyfr0ddw4i8e"
       class="animable" />
    <line
       x1="281.17999"
       y1="354.34"
       x2="313.32999"
       y2="354.34"
       style="fill:none;stroke:#263238;stroke-width:1.10311px;stroke-linecap:round;stroke-linejoin:round"
       id="el45nek461h74"
       class="animable" />
    <path
       d="m 336.6,434.77 -6.5,17.06 c 0,0 -16.58,-4.18 -37.81,-8.53 -22.21,-4.55 -45.4,-10.44 -57.43,-31.55 -1.46,-2.57 -2.44,-5.61 -1.75,-8.49 1.73,-7.29 11.22,-9.27 17.47,-10 a 113.92,113.92 0 0 1 11.83,-0.66 c 2,0 8.65,-1.09 10.26,0.1 a 47.14,47.14 0 0 0 7.71,4.57 c 3.55,1.51 55.37,-1.35 55.37,-1.35 a 18.59,18.59 0 0 0 1.63,-6.23 c 8.15,-4.14 27,-7.64 35,-6.09 12.53,2.43 19.84,9.74 18.45,17.4 -1.39,7.66 -29.07,28.2 -54.23,33.77 z"
       style="fill:#263238"
       id="el7oa5toqg4xu"
       class="animable" />
    <path
       d="m 336.6,434.77 c 0,0 -15.77,-4.18 -28.65,-12.88 -12.88,-8.7 -22.94,-18.8 -40.89,-16.71"
       style="fill:none;stroke:#ffffff;stroke-width:1.10311px;stroke-linecap:round;stroke-linejoin:round"
       id="ely2wq6e5zrbg"
       class="animable" />
    <path
       d="m 305,419.84 c 8.14,-2.34 14.11,-7.61 20.64,-12.66 a 139.62,139.62 0 0 1 22.09,-14.52"
       style="fill:none;stroke:#ffffff;stroke-width:1.10311px;stroke-linecap:round;stroke-linejoin:round"
       id="eljl0mt12j6l"
       class="animable" />
  </g>
  <g
     id="g3419"
     transform="matrix(1.0275616,0,0,1.0995326,-7.8818516,-23.012232)">
    <path
       d="m 293.96102,249.74203 a 2.0169854,1.9497816 0 1 1 -2.01698,-1.94979 2.00559,1.9387658 0 0 1 2.01698,1.94979 z"
       style="fill:#263238;stroke-width:1.12039"
       id="elk7rglfku218-35"
       class="animable" />
    <path
       d="m 294.75179,260.81065 a 2.2984351,2.1478238 0 1 1 -2.29844,-2.14783 2.2854496,2.1356892 0 0 1 2.29844,2.14783 z"
       style="fill:#263238;stroke-width:1.25528"
       id="elk7rglfku218-3"
       class="animable"
       inkscape:label="elk7rglfku218-3" />
    <path
       d="m 295.11702,272.53085 a 2.2984351,2.1478238 0 1 1 -2.29844,-2.14782 2.2854496,2.1356892 0 0 1 2.29844,2.14782 z"
       style="fill:#263238;stroke-width:1.25528"
       id="elk7rglfku218-6"
       class="animable" />
    <path
       d="m 295.54744,283.72469 a 2.2984351,2.1478238 0 1 1 -2.29844,-2.14783 2.2854496,2.1356892 0 0 1 2.29844,2.14783 z"
       style="fill:#263238;stroke-width:1.25528"
       id="elk7rglfku218-7"
       class="animable" />
    <path
       d="m 296.04654,295.99394 a 2.2984351,2.1478238 0 1 1 -2.29843,-2.14782 2.2854496,2.1356892 0 0 1 2.29843,2.14782 z"
       style="fill:#263238;stroke-width:1.25528"
       id="elk7rglfku218-5"
       class="animable" />
  </g>
  <defs
     id="defs2130">
    <filter
       id="active"
       height="200%">
      <feMorphology
         in="SourceAlpha"
         result="DILATED"
         operator="dilate"
         radius="2"
         id="feMorphology2102" />
      <feFlood
         flood-color="#32DFEC"
         flood-opacity="1"
         result="PINK"
         id="feFlood2104" />
      <feComposite
         in="PINK"
         in2="DILATED"
         operator="in"
         result="OUTLINE"
         id="feComposite2106" />
      <feMerge
         id="feMerge2112">
        <feMergeNode
           in="OUTLINE"
           id="feMergeNode2108" />
        <feMergeNode
           in="SourceGraphic"
           id="feMergeNode2110" />
      </feMerge>
    </filter>
    <filter
       id="hover"
       height="200%">
      <feMorphology
         in="SourceAlpha"
         result="DILATED"
         operator="dilate"
         radius="2"
         id="feMorphology2115" />
      <feFlood
         flood-color="#ff0000"
         flood-opacity="0.5"
         result="PINK"
         id="feFlood2117" />
      <feComposite
         in="PINK"
         in2="DILATED"
         operator="in"
         result="OUTLINE"
         id="feComposite2119" />
      <feMerge
         id="feMerge2125">
        <feMergeNode
           in="OUTLINE"
           id="feMergeNode2121" />
        <feMergeNode
           in="SourceGraphic"
           id="feMergeNode2123" />
      </feMerge>
      <feColorMatrix
         type="matrix"
         values="0   0   0   0   0                0   1   0   0   0                0   0   0   0   0                0   0   0   1   0 "
         id="feColorMatrix2127" />
    </filter>
  </defs>
  <path
     style="fill:#263238;fill-opacity:1;stroke-width:1.02649"
     d="m 266.18954,176.72858 c 0.009,11.30069 4.40671,20.94509 10.80439,30.75038 2.48444,3.80773 6.11142,6.20456 9.56593,7.03662 1.79721,0.43287 5.08143,0.37271 7.00625,0.30003 3.13762,-0.11849 6.43283,-1.05902 8.95026,-2.15341 3.58615,-1.55899 4.89147,-5.29329 7.38342,-8.53945 3.78852,-4.93516 4.9266,-8.52212 6.41667,-14.56268 2.01081,-8.15158 2.37665,-23.17662 2.37665,-23.17662 l -2.80257,-0.16759 c 0,0 -1.3012,16.80416 -4.10285,23.492 -1.64125,3.91783 -3.42738,7.52045 -6.4895,10.46435 -2.12282,2.04087 -4.4672,4.13429 -7.28077,5.00342 -3.92183,1.21148 -8.58237,1.6744 -12.31399,-0.0354 -5.19152,-2.37872 -8.12883,-8.1438 -11.22373,-12.94295 -3.20992,-4.97751 -5.58048,-18.06171 -5.58048,-18.06171 z"
     id="path1664"
     inkscape:label="path1664"
     sodipodi:nodetypes="cssssssccssssscc" />
  <path
     style="fill:#263238;fill-opacity:1"
     d="m 285.64393,205.64808 c 0,0 -0.33444,-4.69773 1.64968,-6.71095 1.22609,-1.24407 2.97929,-1.74276 4.68601,-2.11438 0.87105,-0.18966 1.75922,-0.25849 2.64756,-0.25283 1.75458,0.0112 3.56812,0.007 5.09668,0.8856 2.29436,1.31937 2.66066,5.45253 2.66066,5.45253 l 2.70949,-1.9119 c 0,0 -0.86116,-5.10405 -3.18879,-6.68312 -1.5222,-1.03266 -4.2604,-0.9895 -6.32064,-0.99321 -0.82584,-0.001 -2.57911,0.0124 -3.40469,0.0329 -1.2524,0.0311 -2.5675,0.077 -3.90321,0.45005 -1.53698,0.42925 -2.4309,0.85624 -3.47046,1.92395 -2.10752,2.16459 -2.63348,8.43063 -2.63348,8.43063 z"
     id="path2627"
     sodipodi:nodetypes="cssssccssssscc" />
  <rect
     style="fill:none;fill-opacity:1;stroke:#604c20;stroke-width:2;stroke-dasharray:none;stroke-opacity:1"
     id="rect5398"
     width="17.425505"
     height="13.050993"
     x="273.94351"
     y="171.78835"
     rx="3.362083" />
  <rect
     style="fill:none;fill-opacity:1;stroke:#604c20;stroke-width:2;stroke-dasharray:none;stroke-opacity:1"
     id="rect5398-6"
     width="17.425505"
     height="13.050993"
     x="297.75018"
     y="171.73738"
     rx="3.362083" />
  <rect
     style="fill:none;fill-opacity:1;stroke:#604c20;stroke-width:2;stroke-dasharray:none;stroke-opacity:1"
     id="rect7750"
     width="17.425505"
     height="13.050993"
     x="297.75018"
     y="171.73738"
     rx="3.362083" />
  <path
     style="fill:none;fill-opacity:1;stroke:#604c20;stroke-width:2;stroke-dasharray:none;stroke-opacity:1"
     d="m 291.63592,178.05123 c 2.06087,-1.05116 3.1752,-1.47907 6.08085,0.0482 -3.51137,-2.1107 -4.53768,-0.93354 -6.08085,-0.0482 z"
     id="path7950"
     sodipodi:nodetypes="ccc" />
</svg>
